<?xml version="1.0" encoding="utf-8" ?>
<svg xmlns="http://www.w3.org/2000/svg" xmlns:xlink="http://www.w3.org/1999/xlink" width="2048" height="2048">
	<path fill="#8A5839" d="M1016.6 336.075C1022.77 334.948 1029.45 335.957 1034.64 339.605C1052.77 352.356 1069.35 368.871 1086.61 382.899C1143.76 429.331 1199.85 477.345 1256.23 524.736L1409.89 653.182C1433.35 672.786 1458.7 691.566 1480.85 712.61C1486.72 718.192 1492.57 724.641 1493.63 733.018C1494.41 739.26 1492.23 744.972 1488.18 749.684C1484.04 754.491 1478.62 757.505 1472.22 757.687C1454.98 758.178 1429.54 731.762 1417.34 720.564C1415.63 738.6 1416.55 757.813 1416.7 775.945L1417.36 876.647C1417.51 896.366 1418.69 916.736 1417.18 936.366C1414.75 935.262 1412.39 933.951 1410 932.767C1395.25 925.463 1386.9 926.106 1371.71 931.246C1370.58 901.219 1371.65 870.75 1371.7 840.683L1371.63 682.623C1355.52 667.213 1338 653.131 1320.98 638.751C1287.5 610.511 1253.85 582.481 1220.02 554.661L1072.8 431.65C1055.79 417.595 1039.39 402.644 1022 389.089C1006.7 400.096 992.227 413.239 977.609 425.181L868.514 515.503L741.348 619.968C715.575 641.115 689.202 661.543 664.335 683.777L664.489 1039.99L664.247 1155.07C664.168 1176.16 662.959 1198.02 664.601 1219.04C665.674 1232.78 668.778 1245.5 674.868 1257.9C685.599 1279.76 705.524 1292.35 727.924 1300.15C725.46 1295.25 723.168 1290.28 721.052 1285.23C715.19 1271.29 713.209 1255.35 718.573 1240.9C720.627 1235.37 723.67 1229.76 724.859 1223.99C726.293 1217.02 726.713 1209.8 728.016 1202.79C730.966 1186.9 736.288 1171.66 742.477 1156.77C776.887 1074 844.408 1025.56 919.738 982.973C939.598 971.747 959.844 958.898 980.958 950.209C986.925 932.712 992.265 929.385 1000.15 915.354C1014.08 890.552 997.234 878.791 984.486 860.265C979.187 852.565 975.975 845.112 973.716 836.066C976.163 825.788 980.463 820.315 988.076 813.324C996.7 806.245 1005.93 799.934 1014.43 792.688C1023.81 784.696 1032.23 774.855 1042.88 768.516C1052.89 762.552 1061.89 764.021 1072.64 766.578C1105.67 749.797 1153.65 737.356 1190.45 746.047C1196.43 742.861 1202.51 739.368 1209.46 739.129C1212.23 739.034 1215.17 739.243 1217.79 740.21C1228.69 744.238 1239.04 755.61 1248.66 762.25C1258.27 768.878 1268.92 773.726 1277.39 781.922C1282.9 795.089 1287.18 827.024 1282.69 841.056C1281.8 843.826 1280.54 845.39 1277.88 846.67C1272.09 849.448 1266.48 847.054 1260.86 845.239C1260.46 856.334 1259.98 867.676 1262.31 878.604C1266.11 896.513 1277.91 913.759 1274.1 932.712C1271.8 944.124 1264.71 950.624 1255.48 956.741C1251.06 969.116 1245.96 974.963 1234.72 981.437C1237.88 1000.36 1246.48 1017.94 1249.86 1036.8C1248.28 1042.02 1245.72 1046.86 1243.38 1051.76C1243.5 1060 1246.73 1068.11 1246.28 1076.26C1245.86 1083.88 1242.5 1086.96 1236.98 1091.64C1236.9 1099.45 1237.55 1108.26 1236.28 1115.95C1234.61 1126.09 1228.44 1130.51 1220.74 1136.27C1216.11 1162.02 1202.08 1180.82 1182.95 1197.82C1179.33 1224.5 1177.53 1255.75 1178.66 1282.68C1191.89 1287.37 1200.75 1290.78 1207.29 1303.97C1250.36 1303.93 1311.6 1310.97 1344.74 1278.6C1356.3 1267.3 1365.29 1251.72 1369.15 1236.02C1374.6 1213.86 1372.01 1189.34 1371.89 1166.67C1371.66 1125.55 1370.32 1084.3 1370.56 1043.22C1386.28 1054.26 1398.25 1069.15 1416.46 1076.64C1415.65 1106.96 1416.37 1137.41 1416.47 1167.74C1416.64 1217.35 1419.61 1267.09 1382.8 1305.97C1355.68 1334.62 1319.57 1349.4 1280.36 1350.2C1233.41 1351.16 1186.25 1350.14 1139.28 1350.04L918.221 1350.13L803.417 1350.01C779.758 1349.99 754.468 1351.7 731.118 1347.79C703.014 1343.08 679.622 1333.6 658.958 1313.53C639.547 1294.67 625.332 1268.89 620.137 1242.32C616.054 1221.45 617.568 1199.16 617.653 1177.97L617.837 1094.7L617.827 859.3C617.916 814.213 618.92 769.016 618.018 723.942C604.78 732.627 593.84 745.721 580.11 753.408C573.085 757.341 566.083 758.661 558.287 756.199C553.166 754.581 548.199 751.661 545.765 746.68C542.878 740.773 543.033 732.907 545.207 726.802C547.348 720.79 552.049 715.098 556.792 710.905C578.905 691.353 604.764 672.789 627.793 653.774C691.335 600.756 755.225 548.158 819.461 495.983L935.817 399.679C956.039 382.806 995.859 345.433 1016.6 336.075Z"/>
	<path fill="#ECCEA8" d="M1194.08 761.231C1198.77 758.304 1203.76 755.309 1209.41 754.918C1212.1 754.731 1214.25 754.834 1216.69 756.131C1224.26 760.145 1231.18 766.905 1238.12 772.008C1246.22 777.955 1255.59 782.939 1262.89 789.799C1271.33 797.719 1269.44 821.149 1269.76 832.167C1257.15 823.141 1253.29 811.448 1246.42 798.25C1242 789.763 1228.5 768.517 1218.63 766.897C1216.19 766.497 1215.27 767.327 1213.47 768.663C1210.48 778.49 1230.04 798.692 1234.96 807.687C1247.99 831.543 1242.17 857.842 1248.01 882.834C1251.18 896.396 1259.88 906.895 1260.77 921.431C1261.07 926.318 1260.56 933.326 1256.78 936.979C1254.45 939.231 1251.93 940.363 1248.65 940.029C1240.18 939.169 1235.01 931.72 1230.13 925.589C1230.09 918.298 1229.32 911.286 1228.36 904.063C1233.57 899.066 1240.36 892.621 1241.28 885.102C1241.61 882.426 1240.88 879.925 1238.9 878.026C1234.13 873.47 1225.54 873.822 1219.53 874.524C1212.09 875.392 1199.54 878.091 1195.27 884.729C1193.85 886.934 1193.63 888.94 1194.3 891.471C1196.29 898.995 1210.32 904.101 1216.89 906.73C1217.29 914.43 1217.54 921.373 1215.35 928.891C1210.17 946.74 1193.47 963.28 1173.71 961.582C1165.85 960.907 1153.82 953.625 1146.54 958.266C1145.06 959.208 1145.3 959.951 1144.92 961.52C1145.79 964.359 1147.08 966.306 1149.62 967.865C1159.44 973.891 1177.86 975.027 1188.59 972.223C1206.21 967.622 1217.12 953.718 1225.98 938.871C1230.93 944.939 1236.54 949.663 1242.7 954.434C1236.97 963.585 1230.52 968.398 1221.23 973.486C1220.83 979.888 1220.9 986.333 1220.85 992.747C1224.01 1005.4 1228.93 1017.51 1232 1030.16C1228.17 1035.52 1225.69 1039.42 1226.64 1046.2C1227.75 1054.15 1233.17 1064.84 1230.31 1072.61C1228.39 1074.32 1226.52 1075.59 1224.34 1076.94C1213.72 1092.48 1237.95 1106.78 1211.12 1122.83C1210.9 1123.22 1210.68 1123.62 1210.47 1124.01C1205.11 1134.05 1204.35 1145.65 1199.17 1155.59C1185.72 1181.42 1147.12 1211.25 1122.68 1227.88C1124.2 1212.39 1127.68 1194.95 1122 1180.02C1120.17 1179.84 1117.79 1179.38 1115.99 1179.63C1113.85 1179.94 1112.79 1180.73 1111.7 1182.51C1102.75 1197.22 1106.22 1284.53 1110.61 1303.93L1065.74 1303.93C1060.71 1284.98 1055.78 1265.96 1052.35 1246.64C1050.38 1235.5 1050.01 1223.79 1047.19 1212.86C1046.09 1208.6 1044.71 1203.02 1041.54 1199.81C1039.92 1198.16 1037.96 1196.73 1035.49 1197.04C1034.01 1197.23 1032.65 1197.8 1031.73 1198.98C1026.08 1206.18 1036.49 1249.66 1038.54 1260.72C1026.19 1264.35 1013.62 1267.38 1001.16 1270.61C994.207 1267.75 987.071 1265.42 979.956 1263.01C990.234 1246.41 997.042 1229.81 997.203 1210.02C997.383 1187.71 989.365 1164.73 973.369 1148.86C956.14 1131.78 930.925 1125.07 907.192 1125.2C896.368 1125.26 880.569 1124.72 872.834 1133.52C871.118 1135.48 870.892 1136.56 871.072 1139.07C873.011 1141.7 877.109 1142.91 880.263 1143.02C886.172 1143.23 892.307 1141.93 898.237 1141.66C918.249 1140.74 939.392 1143.23 955.971 1155.42C969.91 1165.67 978.07 1181.67 980.464 1198.57C983.713 1221.49 976.816 1241.24 963.211 1259.46C940.406 1254.4 914.601 1253 891.251 1254.19C870.556 1255.25 849.569 1257.89 828.857 1256.19C823.44 1255.74 817.667 1255.32 812.431 1253.78C802.627 1250.9 789.854 1242.64 779.689 1244.63C777.526 1246.41 777.577 1246.26 777.212 1249.03C788.623 1283.9 886.72 1269.81 916.925 1270.25C938.833 1270.57 976.522 1274.77 994.967 1287.01C999.803 1290.22 1005.31 1294.11 1006.42 1300.15C1005.36 1302.65 1005.09 1302.79 1002.8 1304.29C995.374 1303.59 988.807 1290.37 982.469 1285.74C977.231 1281.91 970.447 1281 964.137 1282.22C961.058 1282.81 959.431 1283.8 957.684 1286.36L958.408 1288.85C963.416 1293.68 969.907 1295.04 976.216 1297.44C978.872 1298.45 981.163 1299.47 982.368 1302.11C982.147 1302.28 981.947 1302.49 981.705 1302.63C977.935 1304.88 968.906 1304.3 964.507 1304.39C931.222 1305.08 897.747 1303.8 864.417 1304C841.835 1304.21 819.253 1304.27 796.67 1304.19C785.993 1304.12 774.098 1304.95 763.623 1302.96C754.636 1301.26 742.757 1289.91 738.136 1282.17C723.745 1258.08 735.971 1248.38 741.276 1226.1C744.202 1213.81 745.467 1201.2 748.93 1189.01C754.323 1170.02 762.704 1152.4 772.495 1135.33C822.19 1048.71 912.665 1007.08 996.208 960.34C1000.26 944.935 1006.48 933.221 1016.6 921.046L1019.59 902.091C1022.7 904.209 1026.05 906.243 1029.71 907.207C1035.47 908.728 1041.13 908.088 1046.15 904.793C1071.01 888.469 1064.93 851.742 1069.1 826.898C1070.18 820.452 1075.36 814.873 1075.97 808.942C1076.21 806.514 1075.59 804.238 1073.71 802.573C1071.74 800.831 1069.75 800.421 1067.24 800.632C1052.59 807.872 1054.56 844.028 1052.77 857.719C1051.84 864.66 1050.13 871.474 1047.68 878.034C1045.85 882.902 1043.34 889.634 1037.94 891.425C1035.19 892.337 1032.51 891.664 1030 890.431C1014.18 882.656 995.153 851.971 989.319 835.74C991.428 832.32 994.077 829.291 997.016 826.557C1005.94 818.26 1016.2 811.433 1025.54 803.624C1034 796.555 1041.8 787.048 1051.19 781.353C1058.37 776.992 1067.77 780.597 1075.14 782.607C1112.2 765.163 1153.03 754.662 1194.08 761.231Z"/>
	<path fill="#FEFDFD" d="M1122 1180.02C1122.95 1171.12 1125.58 1161.91 1127.62 1153.18C1136.71 1114.33 1132.56 1104.99 1114.46 1070.66C1105.41 1053.51 1127.51 1052.61 1133.9 1041.88C1137.82 1035.31 1135.83 1027.17 1138.26 1020.13C1143.01 1006.37 1157.99 1008.87 1168.17 1002.72C1172.61 1000.03 1175.5 995.99 1180.39 993.83C1188.64 993.684 1190.93 998.4 1197.84 1000.66C1205.41 1003.14 1214.53 996.302 1220.85 992.747C1224.01 1005.4 1228.93 1017.51 1232 1030.16C1228.17 1035.52 1225.69 1039.42 1226.64 1046.2C1227.75 1054.15 1233.17 1064.84 1230.31 1072.61C1228.39 1074.32 1226.52 1075.59 1224.34 1076.94C1213.72 1092.48 1237.95 1106.78 1211.12 1122.83C1210.9 1123.22 1210.68 1123.62 1210.47 1124.01C1205.11 1134.05 1204.35 1145.65 1199.17 1155.59C1185.72 1181.42 1147.12 1211.25 1122.68 1227.88C1124.2 1212.39 1127.68 1194.95 1122 1180.02Z"/>
	<path fill="#8A5839" d="M1028.96 917.485C1030.41 917.74 1031.87 918.183 1033.3 918.543C1042.48 926.17 1042.39 939.015 1048.97 948.034C1053.38 954.076 1060.45 956.05 1063.72 963.512C1063.46 967.313 1062.28 968.29 1060.1 971.328C1057.44 970.464 1054.93 969.198 1052.65 967.574C1041.64 959.622 1028.35 942.096 1026.19 928.506C1025.45 923.85 1026.32 921.311 1028.96 917.485Z"/>
	<path fill="#8A5839" d="M1128.64 844.515C1131.7 842.968 1135.36 843.212 1138.18 845.152C1141.01 847.092 1142.55 850.419 1142.2 853.828C1141.85 857.237 1139.68 860.186 1136.52 861.518C1131.86 863.482 1126.49 861.405 1124.37 856.822C1122.24 852.238 1124.13 846.796 1128.64 844.515Z"/>
	<path fill="#8A5839" d="M1217.29 826.473C1220.37 825.347 1223.82 825.992 1226.28 828.154C1228.75 830.317 1229.84 833.653 1229.13 836.855C1228.42 840.057 1226.01 842.615 1222.86 843.526C1218.22 844.871 1213.34 842.291 1211.84 837.693C1210.33 833.096 1212.74 828.134 1217.29 826.473Z"/>
	<path fill="#ECCEA8" d="M1162.26 1218.7C1162.4 1218.73 1162.56 1218.72 1162.68 1218.8C1166.65 1221.69 1157.42 1279.72 1165.26 1292.88C1169.26 1299.59 1183.16 1301.66 1190.2 1303.53C1176.74 1304.25 1163.22 1303.96 1149.75 1303.92C1143.63 1304.15 1134.16 1305.58 1129.29 1301.09C1120.46 1292.94 1122.79 1258.33 1122.99 1246.75C1136.87 1238.31 1149.8 1229.15 1162.26 1218.7Z"/>
	<path fill="#FEFDFD" d="M1040.69 1277.22C1045.55 1283.83 1046.31 1295.73 1047.7 1303.83L1025.11 1303.93C1022.31 1301.54 1019.93 1288.63 1017.45 1284.14C1025.24 1282.05 1032.96 1279.54 1040.69 1277.22Z"/>
	<path fill="#F6C6C6" d="M1383.4 943.24C1388.94 942.609 1394.33 943.029 1399.57 945.076C1413.05 950.352 1420.62 962.492 1426.02 975.195C1435.74 965.466 1446.03 955.262 1460.49 953.813C1468.35 953.027 1476.56 955.193 1482.55 960.46C1489.33 966.427 1492.41 975.462 1492.66 984.308C1493.27 1005.74 1478.52 1022.53 1464.49 1036.87C1455.98 1044.68 1444.81 1054.39 1433.68 1058.14C1425.95 1060.74 1418.63 1058.75 1411.6 1055.12C1389.59 1043.77 1366.08 1016.46 1359.17 992.558C1355.96 981.448 1355.51 968.279 1361.6 958.037C1366.45 949.877 1374.45 945.518 1383.4 943.24Z"/>
	<path fill="#8A5839" d="M1434.58 1481.26C1441.57 1481.05 1448.42 1480.01 1454.64 1483.76C1456.26 1486.1 1456.5 1488.4 1456.62 1491.18C1457.63 1513.65 1456.34 1536.7 1456.44 1559.24C1456.52 1577.44 1458.17 1596.54 1456.9 1614.62C1456.75 1616.74 1456.67 1620.33 1454.84 1621.66C1451.12 1624.36 1440.33 1625.75 1435.74 1624.83C1431.16 1623.91 1429.57 1621.31 1427.25 1617.65C1424.39 1619.34 1421.49 1621.09 1418.44 1622.43C1408.06 1626.99 1396.53 1628.57 1385.78 1624.36C1381.8 1622.24 1377.69 1619.96 1374.27 1617C1363.35 1607.56 1357.7 1591.19 1356.72 1576.99C1355.69 1562.01 1361.9 1544.76 1372 1533.77C1381.97 1522.92 1394.03 1518.66 1408.39 1521.34C1412.66 1522.14 1417.25 1523.56 1421.6 1523.32C1423.53 1511.91 1422.75 1499.37 1422.96 1487.75C1426.82 1483.97 1429.24 1482.35 1434.58 1481.26ZM1410.43 1599.62C1414.68 1598.75 1418.11 1598.12 1420.81 1594.39C1426.43 1586.59 1426.12 1569.72 1424.33 1560.56C1423.49 1556.26 1421.26 1551.13 1417.41 1548.71C1413.93 1546.53 1409.89 1547.07 1405.98 1547.26C1399.12 1550.01 1394.6 1553.59 1391.59 1560.53C1388.33 1568.08 1388.56 1577.57 1391.94 1585.04C1394.75 1591.26 1399.41 1596.16 1405.94 1598.37C1407.42 1598.87 1408.92 1599.24 1410.43 1599.62Z"/>
	<path fill="#8A5839" d="M399.634 1490.48C421.147 1489.78 446.551 1487.63 464.017 1502.91C473.028 1510.8 477.863 1522.05 478.433 1533.92C479.068 1546.66 474.523 1559.11 465.831 1568.45C450.615 1584.69 431.187 1583.44 410.909 1583.8C409.482 1592.78 411.859 1601.68 411.905 1610.65C411.928 1614.97 411.099 1618.75 407.919 1621.84C404.403 1625.27 400.301 1625.78 395.567 1625.74C390.021 1625.7 380.967 1625.03 377.27 1620.06C374.949 1616.94 375.139 1610.62 374.991 1606.8C374.491 1593.79 375.809 1580.57 375.99 1567.53C376.244 1549.16 373.546 1512.07 378.229 1495.66C383.369 1490.17 392.605 1491.04 399.634 1490.48ZM411.69 1556.69C420.827 1556.82 429.087 1557.63 437.213 1552.75C441.87 1548.55 445.172 1543.1 445.332 1536.65C445.449 1531.92 442.917 1527.32 439.591 1524.11C433.108 1517.84 424.266 1516.36 415.578 1516.73C414.665 1516.77 413.756 1516.87 412.847 1516.97C409.476 1525.54 411.545 1546.85 411.69 1556.69Z"/>
	<path fill="#8A5839" d="M1150.38 1490.42C1155.97 1490.3 1162.29 1489.99 1166.81 1493.9C1170.96 1497.48 1171.97 1502.69 1172.17 1507.92C1172.51 1516.81 1171.12 1526.17 1170.92 1535.11C1170.36 1559.7 1173.84 1593.51 1154.62 1612.42C1144.31 1622.57 1129.58 1626.9 1115.36 1626.6C1100.32 1626.29 1083.92 1621.07 1073.56 1609.78C1056.25 1590.9 1059.45 1559.34 1060.36 1535.75C1060.8 1526.99 1057.79 1502.87 1061.76 1496.48C1063.51 1493.65 1067.26 1492.21 1070.37 1491.52C1076.43 1490.18 1086.81 1490.21 1091.93 1494.32C1094.79 1496.61 1095.26 1500.05 1095.56 1503.49C1096.24 1511.35 1095.13 1519.56 1094.76 1527.44C1093.92 1545.7 1093.5 1564.96 1096.97 1582.95C1097.92 1587.91 1100.41 1592.67 1104.77 1595.44C1109.09 1598.19 1114.23 1598.55 1119.08 1597.17C1125.65 1595.3 1130.91 1590.04 1133.33 1583.7C1138.79 1569.39 1135.17 1530.44 1135.1 1513.9C1135.08 1508.76 1134.35 1499.94 1137.51 1495.67C1140.69 1491.39 1145.51 1491.28 1150.38 1490.42Z"/>
	<path fill="#8A5839" d="M845.174 1520.62C859.837 1519.28 878.862 1519.72 890.754 1529.5C898.737 1536.06 901.154 1552.82 901.97 1562.62C902.79 1572.47 905.361 1616.8 899.66 1622.1C895.758 1625.73 888.118 1626.46 883.093 1625.7C878.33 1624.98 875.591 1622.08 872.723 1618.48C868.888 1620.87 864.777 1622.8 860.479 1624.22C848.387 1628.12 836.987 1627.01 825.621 1621.46C823.438 1620.25 821.199 1619.03 819.135 1617.61C813.677 1613.87 810.184 1607.18 809.356 1600.7C808.171 1591.43 811.752 1581.68 817.491 1574.47C828.05 1561.2 845.347 1561.49 860.538 1559.7C864.605 1559.22 866.859 1558.74 869.435 1555.46L869.1 1552.96C855.715 1533.66 838.084 1556.46 823.268 1550.18C820.088 1548.84 817.091 1544.9 816.294 1541.56C815.567 1538.52 815.934 1535.91 817.716 1533.3C823.621 1524.65 835.635 1522.44 845.174 1520.62ZM850.195 1602.44C854.667 1603.23 859.159 1604 863.139 1601.16C865.495 1599.48 867.508 1596.95 869.428 1594.79C869.603 1590.95 870.714 1583.38 868.529 1580.2C867.74 1579.05 865.774 1579.25 864.489 1579.14C864.288 1579.13 864.085 1579.14 863.884 1579.14C857.117 1580.8 848.158 1582.67 843.987 1588.88C842.717 1590.78 842.372 1593.23 843.202 1595.37C844.386 1598.42 847.523 1600.75 850.195 1602.44Z"/>
	<path fill="#8A5839" d="M1513.58 1519.44C1520.3 1519.15 1527.71 1519.33 1534.27 1520.95C1543.99 1523.34 1551.86 1528.77 1556.9 1537.49C1566.82 1554.67 1567.67 1602.22 1562.47 1620.94C1559.98 1623.56 1556.94 1625.39 1553.33 1625.99C1545.37 1627.31 1539.23 1622.59 1533.1 1618.31C1526.56 1621.27 1519.53 1624.88 1512.41 1626.11C1501.66 1627.98 1492.1 1624.81 1483.27 1618.78C1481.57 1617.17 1479.83 1615.55 1478.3 1613.78C1472.99 1607.61 1471.17 1599.16 1471.78 1591.19C1473.15 1573.26 1493.88 1564.75 1509.37 1562.03C1515.4 1560.97 1525.53 1561.7 1530.15 1557.74C1530.34 1556.26 1530.42 1555.1 1529.85 1553.69C1528.4 1550.08 1525.49 1546.4 1521.85 1544.84C1513.28 1541.17 1503.08 1548.24 1494.98 1550.88C1491.31 1552.08 1487.69 1552.05 1484.34 1549.94C1481.1 1547.91 1478.39 1542.34 1477.99 1538.63C1477.65 1535.47 1478.62 1532.75 1480.66 1530.37C1487.69 1522.15 1503.37 1520.35 1513.58 1519.44ZM1514.91 1604.64C1521.66 1603.36 1526.16 1600.95 1530.05 1595.13C1532.22 1591.86 1534.45 1587.4 1533.41 1583.36C1532.87 1581.23 1531.38 1579.4 1529.3 1578.61C1527.29 1577.85 1524.73 1578.13 1522.63 1578.26C1515.09 1580.38 1509.16 1582.32 1505.13 1589.71C1503.9 1591.98 1503.35 1594.53 1504.24 1597.04C1505.35 1600.12 1508.93 1602.82 1511.96 1603.9C1513.35 1604.39 1513.6 1604.4 1514.91 1604.64Z"/>
	<path fill="#8A5839" d="M523.233 1520.37C525.436 1520.14 527.643 1519.95 529.853 1519.8C542.467 1518.99 557.304 1521.26 566.872 1530.08C577.098 1539.51 579.086 1554.12 579.596 1567.32C579.935 1576.12 582.112 1618.26 576.587 1622.92C573.957 1625.13 570.122 1625.7 566.802 1625.44C558.35 1624.79 553.68 1622.48 548.048 1616.19C542.819 1621.02 537.71 1624.4 530.659 1626.06C519.875 1628.6 510.408 1625.99 501.257 1620.22C498.387 1617.56 495.438 1614.91 493.195 1611.67C488.561 1604.99 487.178 1594.96 488.695 1587.08C494.42 1557.32 534.928 1565.25 544.608 1558.7C545.563 1555.83 545.466 1552.51 543.898 1549.81C542.151 1546.81 539.201 1545.96 536.036 1545.29C523.044 1542.55 506.223 1555.51 498.776 1551.3C496.803 1550.19 495.806 1548.73 495.194 1546.62C493.896 1542.13 495.709 1536.41 498.098 1532.58C503.699 1523.61 513.81 1522.74 523.233 1520.37ZM527.752 1604.22C533.174 1604.11 537.994 1604.27 542.055 1600.2C545.581 1596.66 548.263 1591.47 547.962 1586.38C547.771 1583.14 546.766 1580.73 544.513 1578.52C542.486 1578.4 540.512 1578.32 538.482 1578.4C531.595 1579.83 525.636 1581.39 521.324 1587.51C519.436 1590.19 518.952 1592.64 519.682 1595.81C520.672 1600.11 524.159 1602.25 527.752 1604.22Z"/>
	<path fill="#8A5839" d="M1246.95 1519.27C1250.61 1519.21 1254.25 1519.15 1257.86 1519.9C1266.8 1521.77 1274.28 1526.87 1279.15 1534.6C1290.78 1553.06 1286.07 1573.68 1286.46 1593.91C1286.6 1601.29 1288.41 1609.65 1286.43 1616.87C1285.57 1620.03 1284.07 1622.24 1281.08 1623.78C1276.72 1626.02 1265.34 1626.42 1260.74 1624.83C1245.23 1619.44 1259.67 1572.93 1251.48 1557.93C1249.37 1554.08 1245.81 1551.14 1241.49 1550.17C1236.74 1549.1 1232.25 1550.18 1228.23 1552.8C1227.97 1552.97 1227.72 1553.15 1227.46 1553.33C1217.83 1571.08 1230.59 1610 1220.6 1621.51C1218.13 1624.35 1214.2 1624.91 1210.63 1625.19C1205.45 1625.59 1197.25 1625.11 1193.46 1620.91C1191.29 1618.5 1191.02 1614.36 1190.74 1611.29C1189.54 1598.07 1190.75 1584.44 1190.79 1571.17C1190.83 1558.31 1189.73 1545.51 1190 1532.63C1190.14 1532.34 1190.27 1532.05 1190.41 1531.77C1190.64 1531.32 1190.87 1530.88 1191.1 1530.43C1193.25 1526.19 1195.73 1523.72 1200.29 1522.07C1204.17 1520.66 1208.01 1520.94 1211.72 1522.7C1217.44 1525.43 1218.71 1529.05 1220.86 1534.8C1228.3 1525.63 1235.09 1520.94 1246.95 1519.27Z"/>
	<path fill="#8A5839" d="M952.046 1520.39C964.026 1519.26 980.165 1519.04 990.502 1526.04C993.321 1527.95 995.549 1530.56 996.088 1534.01C996.963 1539.61 992.881 1547.38 989.148 1551.26C984.964 1555.59 976.789 1547.27 972.101 1545.72C968.718 1544.6 964.591 1544.41 961.061 1544.57C956.568 1544.77 952.153 1545.15 949.02 1548.54C951.588 1554.37 977.184 1563.7 984.304 1568.31C991.532 1573 998.45 1580 999.98 1588.81C1001.29 1596.33 997.581 1603.93 993.063 1609.69C985.164 1619.77 973.773 1624.91 961.245 1626.23C952.927 1626.62 945.247 1626.25 937.119 1624.35C930.783 1622.87 920.495 1620.05 917.382 1613.69C914.047 1606.87 918.838 1597.45 921.125 1590.78C927.75 1593.08 933.724 1596.78 940.247 1599.28C946.358 1601.62 957.215 1604.48 963.396 1601.16C965.831 1599.85 966.735 1598.31 967.542 1595.8C964.631 1586.67 941.95 1580.99 933.652 1576.34C926.438 1572.29 919.83 1566.05 917.902 1557.73C916.321 1550.91 918.473 1543.63 922.161 1537.84C929.016 1527.09 940.177 1522.88 952.046 1520.39Z"/>
	<path fill="#8A5839" d="M1611.23 1520.55C1623.31 1519.21 1641.95 1518.58 1652.33 1525.85C1655.46 1528.04 1657.32 1530.68 1657.75 1534.57C1658.49 1541.19 1652.42 1548.5 1648.27 1552.96C1639.46 1548.45 1626.18 1541.03 1616.23 1543.82C1613.97 1545.74 1613.65 1546.07 1612.7 1548.85C1615.9 1560.01 1642.46 1564.65 1651.95 1572.43C1656.81 1576.41 1660.35 1581.55 1660.86 1587.94C1661.53 1596.23 1657.65 1606.89 1652.14 1613.2C1645.73 1620.53 1633.55 1625.53 1624.05 1626.36C1612.14 1628.02 1597.55 1627.7 1587.59 1620.16C1582.76 1616.51 1579.47 1611.25 1578.91 1605.16C1578.58 1601.6 1579.33 1597.49 1582.07 1594.96C1591.99 1585.81 1601.32 1602.24 1610.53 1602.57C1610.91 1602.59 1611.29 1602.57 1611.68 1602.57C1617.64 1602.58 1622.75 1601.9 1627.72 1598.43C1628.42 1597 1629.21 1596.36 1628.65 1594.73C1625.97 1587.06 1609.85 1583.29 1603.13 1580.39C1594.5 1576.66 1585.16 1571.06 1581.83 1561.71C1579.15 1554.15 1580.53 1544.37 1584.27 1537.39C1589.82 1527.05 1600.66 1523.49 1611.23 1520.55Z"/>
	<path fill="#8A5839" d="M751.581 1496.35C754.519 1496.06 757.463 1495.83 760.419 1495.86C764.419 1495.89 768.49 1496.53 771.184 1499.84C775.757 1505.46 773.864 1516.55 773.582 1523.42L776.631 1523.19C783.871 1522.67 791.819 1521.63 797.559 1527.13C800.279 1529.71 801.751 1533.33 801.595 1537.07C801.422 1540.83 799.326 1545 796.35 1547.34C792.28 1550.55 787.448 1549.24 782.81 1548.56C779.503 1548.08 777.742 1547.73 775.005 1549.75C770.891 1560 771.694 1578.17 774.373 1588.88C775.393 1592.95 776.554 1596.76 780.607 1598.72C786.736 1601.69 793.414 1598.54 799.348 1596.53C800.961 1603.09 804.537 1613.05 802.132 1619.57C795.517 1623.96 787.047 1625.67 779.203 1626.01C769.559 1626.42 758.87 1625.49 751.644 1618.35C736.627 1603.51 740.916 1567.96 741.033 1548.49C736.36 1548.5 731.3 1549.16 727.404 1546.1C724.685 1543.96 722.477 1540.7 722.423 1537.15C722.371 1533.73 724.164 1530.64 726.54 1528.3C731.063 1523.85 735.19 1524.08 741.124 1524.05C740.796 1517.86 739.331 1509.56 741.855 1503.73C743.784 1499.28 747.367 1498.03 751.581 1496.35Z"/>
	<path fill="#8A5839" d="M615.158 1496.26C618.352 1495.77 621.492 1495.43 624.729 1495.45C628.868 1495.47 632.875 1495.92 635.681 1499.37C640.366 1505.13 638.739 1516.64 638.618 1523.73C642.599 1523.64 646.649 1523.45 650.626 1523.63C655.095 1523.83 660.258 1525.95 663.232 1529.37C665.234 1531.66 666.203 1534.41 665.851 1537.48C665.48 1540.71 662.996 1543.78 660.448 1545.62C653.216 1550.83 646.132 1549.67 638.002 1548.12C636.662 1560 634.157 1575.75 637.409 1587.28C638.544 1591.3 640.78 1594.66 644.551 1596.62C650.442 1599.69 656.332 1597.34 662.229 1595.67C663.061 1602.85 666.897 1613.8 664.608 1620.21C655.464 1624.31 644.506 1627.21 634.434 1626.42C626.495 1625.81 619.412 1622.43 614.25 1616.32C599.917 1599.35 603.753 1569.12 605.778 1548.64C602.03 1548.69 596.988 1549.17 593.621 1547.2C590.672 1545.47 588.667 1542.06 588.127 1538.77C587.571 1535.38 589.152 1531.72 591.17 1529.09C595.001 1524.1 599.28 1523.84 605.046 1523.09C604.988 1516.94 605.324 1510.94 605.805 1504.81C608.368 1500.63 610.796 1498.48 615.158 1496.26Z"/>
	<path fill="#8A5839" d="M1315.95 1522.12L1317.13 1522C1324.34 1521.33 1332.1 1520.81 1337.95 1525.71C1339.11 1529.36 1339.63 1532.98 1339.91 1536.8C1340.49 1544.79 1342.37 1614.1 1340.92 1618.49C1339.74 1622.07 1335.68 1623.8 1332.58 1625.37C1328.43 1625.55 1324.18 1625.83 1320.03 1625.56C1315.65 1625.27 1311.63 1624.54 1308.62 1621.14C1306.41 1610.46 1305.61 1537.43 1308.33 1529.11C1309.67 1525.01 1312.34 1523.82 1315.95 1522.12Z"/>
	<path fill="#8A5839" d="M686.567 1524.15C694.384 1523.39 703.19 1522.6 710.38 1526.18C712.382 1528.81 712.374 1531.14 712.665 1534.36C713.764 1546.53 712.627 1559.34 712.586 1571.56C712.541 1585.19 713.406 1598.93 712.934 1612.54C712.744 1618.04 711.689 1619.67 707.758 1623.36C702.55 1624.55 696.76 1625.25 691.41 1624.95C687.651 1624.74 684.204 1624.19 681.645 1621.22C679.22 1612.33 678.026 1541.75 679.879 1532.59C680.777 1528.15 683.064 1526.52 686.567 1524.15Z"/>
	<path fill="#70B3DC" d="M1330.76 1687.25C1332.32 1687.19 1333.66 1687.43 1335.21 1687.69C1338.3 1693.54 1329.69 1748.28 1329.5 1760.82C1334.29 1760.28 1337.44 1759.48 1341.55 1762.59L1341.28 1763.22L1340.88 1761.35L1340.67 1763.94C1337.13 1767 1331.05 1769.47 1326.51 1770.3C1323.38 1770.88 1320.63 1770.67 1318.05 1768.64C1316.79 1767.64 1315.2 1765.81 1313.78 1765.12C1311.69 1764.1 1301.27 1769.03 1298.4 1769.62C1295.71 1770.17 1292.8 1769.97 1290.07 1769.87C1285.53 1768.24 1281.82 1766.19 1278.99 1762.16C1275.67 1757.43 1274.89 1752.01 1275.93 1746.39C1277.96 1735.48 1286.34 1725.11 1295.6 1719.31C1304.23 1713.9 1309.92 1713.58 1319.65 1715.58L1320.53 1700.29C1317.79 1699.25 1314.2 1698.43 1312.31 1696.12C1311.19 1694.75 1311.65 1694.49 1311.89 1692.88C1316.5 1688.86 1324.86 1688.29 1330.76 1687.25ZM1300.09 1759.7C1303.23 1759.62 1310.18 1759.94 1312.48 1757.57C1316.42 1753.49 1318.16 1733.85 1317.79 1727.99C1317.68 1726.31 1317.53 1725.6 1316.11 1724.73C1314.14 1723.52 1312.51 1723.38 1310.27 1723.02C1302.92 1724.85 1298.08 1728.02 1294.11 1734.62C1291.28 1739.33 1289.93 1744.69 1291.29 1750.11C1292.49 1754.9 1295.11 1757.05 1299.28 1759.3C1299.55 1759.45 1299.82 1759.57 1300.09 1759.7Z"/>
	<path fill="#70B3DC" d="M708.478 1688.36C710.746 1688.24 709.577 1688.07 711.951 1689.06C715.199 1695.31 711.429 1712.23 710.582 1719.48C717.448 1715.64 724.993 1713.07 732.885 1715.51C737.496 1716.94 741.069 1720.06 743.266 1724.34C746.399 1730.44 746.388 1737.86 744.3 1744.29C740.773 1755.15 731.713 1762.89 721.764 1767.78C712.532 1771.57 700.745 1770.13 690.971 1769.02C679.104 1760.79 699.774 1717.1 696.133 1702.53C693.588 1700.78 691.306 1698.96 689.001 1696.9L688.994 1694.91C693.992 1691.38 702.513 1690.04 708.478 1688.36ZM721.364 1759.15C726.753 1754.35 731.117 1748.67 731.372 1741.14C731.503 1737.26 730.317 1733.41 727.55 1730.62C723.552 1726.59 718.619 1726 713.235 1726.02C707.325 1730.65 704.814 1738.67 703.859 1745.94C703.275 1750.39 703.199 1756.73 706.587 1760.19C708.439 1762.09 710.805 1762.46 713.332 1762.3C716.099 1762.12 718.945 1760.41 721.364 1759.15Z"/>
	<path fill="#70B3DC" d="M907.835 1713.24C910.695 1713.29 913.901 1713.43 916.631 1714.35C920.766 1715.74 924.653 1720.29 926.453 1724.14C927.533 1726.46 927.851 1729.12 926.733 1731.48C922.072 1741.33 904.862 1744.01 895.639 1748.07C893.207 1749.14 892.048 1749.97 891.009 1752.39C891.539 1754.2 891.944 1756.09 893.353 1757.47C900.217 1764.17 913.473 1756.04 921.416 1757.23C923.298 1757.51 922.529 1757.19 923.862 1758.9L923.329 1762.77C918.164 1766.39 912.345 1768.97 906.195 1770.37C898.857 1772.05 890.918 1771.35 884.542 1767.11C879.225 1763.57 875.808 1757.92 874.703 1751.67C873.237 1743.38 875.519 1734.27 880.556 1727.54C887.179 1718.7 897.305 1714.96 907.835 1713.24Z"/>
	<path fill="#70B3DC" d="M1060.69 1714.3C1062.14 1714.15 1063.6 1714.14 1065.05 1714.25C1068.46 1714.52 1071.83 1715.92 1073.99 1718.66C1081.46 1728.1 1072.86 1749.28 1071.28 1760.18C1075.61 1760.62 1079.64 1760.36 1082.62 1763.81C1081.89 1765.53 1082.14 1765.55 1080.39 1766.68C1075.31 1769.93 1067.41 1771.16 1061.58 1769.66C1054.05 1761.85 1062.95 1743.31 1061.79 1732.88C1061.43 1729.69 1060.4 1728.5 1057.89 1726.65C1052.57 1726.08 1048.49 1728.28 1043.97 1730.84C1038.58 1740.34 1040.45 1753.45 1035.96 1763.73C1034.35 1767.41 1032.75 1768.95 1028.99 1770.3C1026 1769.62 1025.69 1769.63 1023.65 1767.39C1020.86 1756.99 1028.48 1746.46 1028.56 1736.09C1028.6 1731.82 1026.24 1730.59 1023.48 1727.85C1020.88 1725.26 1019.76 1723.83 1019.68 1720.12C1021.37 1717.71 1023.3 1716.57 1026.12 1715.84C1030.46 1714.71 1034.21 1716.3 1037.83 1718.57C1039.15 1719.4 1040.41 1720.25 1041.8 1720.95C1042.14 1721.12 1044.33 1722.16 1044.43 1722.18C1044.5 1722.19 1058.3 1715.12 1060.69 1714.3Z"/>
	<path fill="#70B3DC" d="M1244.26 1713.29C1249.44 1713.64 1253.73 1714.3 1258 1717.49C1261.39 1720.02 1264.01 1723.13 1264.32 1727.52C1265.57 1745.43 1234.53 1742.17 1227.9 1748.79C1228.09 1750.03 1228.23 1751.72 1228.71 1752.92C1234.37 1766.96 1253.98 1753.36 1263.66 1758.34L1264.49 1761.18C1261.21 1763.5 1257.51 1765.19 1253.75 1766.6C1244.55 1770.05 1233.36 1771.96 1224.17 1767.51C1219.2 1765.11 1215.65 1761.02 1214.02 1755.75C1211.53 1747.73 1213.91 1738.27 1218.09 1731.25C1223.99 1721.33 1233.31 1716 1244.26 1713.29ZM1236.89 1739.81C1242.3 1738.14 1246.09 1736.99 1248.69 1731.64C1249.4 1730.17 1249.46 1728.77 1249.51 1727.17C1248.31 1724.96 1247.48 1723.5 1244.85 1722.86C1243.51 1722.53 1241.77 1722.66 1240.43 1722.66C1236.06 1725.19 1229.07 1729.93 1227.6 1735.18C1227.21 1736.56 1227.28 1736.81 1227.29 1738.09C1228.71 1739.95 1228.98 1740.52 1231.54 1740.61C1233.21 1740.67 1235.24 1740.11 1236.89 1739.81Z"/>
	<path fill="#70B3DC" d="M788.517 1756.45C794.009 1747.34 800.755 1720.42 804.553 1716.51C805.78 1715.25 806.793 1715.69 808.423 1715.68C810.683 1717.01 811.568 1717.34 812.039 1720.19C813.88 1731.31 794.736 1759.86 788.157 1769.77C784.202 1775.5 780.232 1781.16 775.419 1786.21C770.987 1790.86 764.371 1793.79 757.855 1793.54C755.181 1793.44 754.134 1792.86 752.282 1791.03C751.871 1788.64 752.412 1787.57 753.415 1785.4C759.129 1780.64 763.26 1784.51 768.917 1782.7C772.532 1781.54 776.987 1773.84 779.191 1770.74C774.627 1755.38 771.726 1740.58 762.743 1726.95C758.909 1725.89 755.205 1724.5 751.472 1723.14C756.86 1720.09 761.848 1718.2 767.726 1716.36C769.743 1716.11 771.514 1715.96 773.348 1717.06C782.268 1722.37 786.12 1746.87 788.517 1756.45Z"/>
	<path fill="#70B3DC" d="M1183.3 1704.17C1186.27 1703.77 1189.54 1703.02 1192.48 1703.78C1194.11 1704.2 1193.93 1704.8 1194.56 1706.16C1194.17 1707.61 1193.6 1709.26 1193.48 1710.75C1192.84 1718.47 1201.36 1715.99 1204.81 1720.5C1205.69 1721.66 1205.24 1722.19 1205.01 1723.5C1201.6 1726.29 1200.39 1724.99 1196.31 1725.57C1193.93 1725.91 1192.9 1726.56 1191.65 1728.64C1187.76 1735.12 1186.96 1750.22 1188.22 1757.54C1191.91 1762.35 1197.96 1762.04 1203.45 1762.99L1203.71 1764.64L1201.63 1766.13C1196.64 1768.46 1187.21 1771.47 1181.73 1770.4C1166.44 1767.41 1180.08 1737.87 1177.37 1728.58C1176.49 1725.58 1169.89 1726.15 1167.78 1723L1168.55 1721.04C1172.12 1718.67 1176.61 1718.17 1180.74 1717.29C1181.19 1712.37 1181.06 1708.71 1183.3 1704.17Z"/>
	<path fill="#8A5839" d="M688.863 1481.77C693.466 1480.81 697.316 1480.34 701.91 1481.64C706.939 1483.07 711.638 1486.44 714.105 1491.11C715.908 1494.53 716.47 1498.66 715.161 1502.34C713.109 1508.11 708.501 1511.26 703.163 1513.66C699.558 1514.37 696.014 1515.03 692.354 1514.28C686.974 1513.18 682.055 1509.41 679.376 1504.64C677.192 1500.75 676.522 1496.33 677.989 1492.07C679.761 1486.92 684.286 1484.15 688.863 1481.77Z"/>
	<path fill="#70B3DC" d="M1147.41 1703.69C1149.33 1703.59 1150.76 1703.43 1152.59 1704.15C1160.5 1707.22 1145.71 1748.4 1150.35 1757.61C1152.44 1761.77 1157.84 1761.05 1161.67 1762.4L1161.93 1763.96C1159.26 1768.05 1154.02 1769.15 1149.59 1770.38C1147.43 1770.42 1144.97 1770.56 1142.85 1770.08C1139.94 1769.4 1138.38 1768.21 1136.84 1765.65C1131.87 1757.4 1139.09 1737.87 1141.12 1728.95C1140.77 1728.82 1140.42 1728.7 1140.07 1728.57L1138.44 1727.94C1135.48 1726.82 1133.69 1726.23 1131.61 1723.65L1131.99 1721.57C1135.99 1718.38 1139.9 1715.17 1142.45 1710.65C1143.91 1708.07 1145.49 1705.95 1147.41 1703.69Z"/>
	<path fill="#8A5839" d="M1318.06 1481.18C1324.07 1479.08 1330.75 1480.37 1335.53 1484.58C1340.32 1488.78 1342.46 1495.24 1341.14 1501.47C1339.83 1507.7 1335.25 1512.74 1329.18 1514.65C1321.97 1516.91 1314.12 1514.33 1309.66 1508.24C1306.36 1503.73 1305.39 1497.93 1307.05 1492.59C1308.71 1487.26 1312.79 1483.03 1318.06 1481.18Z"/>
	<path fill="#70B3DC" d="M960.321 1714.35L961.414 1714.46C971.509 1723.1 955.622 1742.58 957.776 1752.85C959.086 1759.1 965.739 1759.5 967.941 1764.5C967.283 1765.61 967.28 1765.76 966.187 1766.79C961.628 1771.09 955.079 1770.96 949.298 1770.71C934.315 1756.56 953.717 1741.97 948.648 1729.23C946.328 1726.78 943.769 1726.38 940.626 1725.56C938.574 1725.02 939.515 1725.6 938.036 1723.73L938.82 1721.61C944.452 1717.59 953.615 1716.2 960.321 1714.35Z"/>
	<path fill="#70B3DC" d="M1107.71 1716.3C1110.25 1715.69 1113.04 1715.26 1115.5 1716.34C1123.56 1719.86 1106.63 1747.76 1112.04 1757.17C1114.03 1760.63 1117.66 1761.13 1121.23 1761.86C1123.1 1762.24 1122.16 1761.76 1123.71 1763.54C1121.32 1767.85 1116.11 1768.94 1111.65 1770.35C1108.3 1770.32 1105.07 1770.23 1102.07 1768.52C1089.45 1761.38 1104.82 1740.33 1101.44 1729.42C1098.93 1727 1095.91 1727.54 1092.5 1726.95L1091.29 1725.04L1092.26 1722.75C1096.35 1719.24 1102.67 1718.13 1107.71 1716.3Z"/>
	<path fill="#70B3DC" d="M994.79 1715.1C996.728 1715.49 998.276 1716.15 1000.06 1716.99C1008.43 1726.62 994.32 1743.48 997.254 1754.85C999.32 1762.86 1006.5 1759.25 1011.66 1762.4L1011.47 1764.58C1007.94 1768.9 1002.34 1769.75 997.123 1770.66C994.238 1770.89 990.943 1770.87 988.523 1769.03C978.062 1761.07 989.379 1739.94 988.271 1729.53C988.102 1727.94 987.467 1727.88 986.331 1726.94C983.921 1726.55 981.934 1726.28 979.713 1725.21L979.681 1723.05C981.876 1719.46 990.757 1716.83 994.79 1715.1Z"/>
	<path fill="#70B3DC" d="M1108.6 1691.34C1112.55 1689.68 1117.09 1691.54 1118.75 1695.49C1120.4 1699.45 1118.54 1703.99 1114.59 1705.64C1110.64 1707.29 1106.1 1705.43 1104.45 1701.48C1102.79 1697.54 1104.65 1692.99 1108.6 1691.34Z"/>
	<path fill="#70B3DC" d="M954.636 1691.22C957.084 1689.99 960.007 1690.19 962.267 1691.74C964.527 1693.29 965.767 1695.94 965.503 1698.67C965.24 1701.4 963.515 1703.77 961.001 1704.85C957.264 1706.47 952.919 1704.82 951.196 1701.13C949.473 1697.44 950.997 1693.05 954.636 1691.22Z"/>
</svg>
